PathFileType	4	(X/Y/Z)	C:\Users\°ÂÌØÂü\Desktop\20210112\bx_n_0_501-Unnamed.trc
DataRate	CameraRate	NumFrames	NumMarkers	Units	OrigDataRate	OrigDataStartFrame	OrigNumFrames
50.00	50.00	       4	0	mm	50.00	212	       339
Frame#	Time	
		

212	4.220	-571.61475	82.75562	1826.93665	-743.75476	263.36755	743.85205	-623.76343	259.96106	1526.04565	-567.23956	82.94871	1315.66064	-749.56274	271.79785	876.73016	-757.09259	-23.81238	206.09984	-690.17548	13.78162	524.64490	-767.16852	245.91595	639.98236				-650.70801	-15.07545	811.32568	-789.47424	256.08505	498.03195	-548.07996	211.83517	165.31427	-546.97107	-11.33129	161.91963	-734.47168	133.30736	573.92822	-601.87787	37.00358	167.56294	-677.72815	56.92001	159.37260	-796.63715	181.96529	183.13869	-763.49475	225.18469	204.24129	-590.05457	183.69989	174.35220	-882.70691	296.05905	144.52444	-758.16638	241.34622	575.59216	-640.50702	273.61130	160.10504	-602.03918	274.27710	159.65474	-528.31281	304.02249	146.19852	-599.16479	-97.32249	1521.30188	-866.03192	80.42133	1077.72107	-650.66364	203.75098	798.49017	-727.83240	69.68822	577.62408	-794.50391	31.99199	173.86031	-773.95972	-53.91276	484.79553	-876.12219	-78.89765	141.41621	-725.34283	69.01472	217.37096				-738.98517	-41.89011	615.05524	-738.99780	-38.88911	568.08612	-721.08917	144.06145	219.37715				-599.88593	-62.46712	158.54175	-641.63336	-60.24743	162.89215	-738.98260	-70.87006	756.77234	-517.91980	-73.01032	143.17534							-667.61432	-21.71693	1045.05127	-668.33191	222.11339	1060.43823				-707.70795	192.40317	536.96979	-735.65558	-84.66349	874.15961	
213	4.240	-578.86572	81.61832	1829.40698	-742.38281	263.39255	744.21649	-628.77814	259.54996	1527.81323	-569.29688	82.83602	1318.19592	-747.96399	272.35339	877.54163	-757.09259	-23.81238	206.09984	-689.43463	13.40491	524.37537	-765.87366	245.39903	640.20276				-649.33453	-15.26563	811.40521	-788.55463	255.90675	498.27759	-548.07996	211.83517	165.31427	-546.95551	-11.25914	161.73993	-733.24530	133.30502	573.71906	-601.71320	37.37350	167.75543	-677.84534	56.89575	159.66656	-796.57465	181.78223	183.38014	-763.19586	225.05731	204.02519	-590.05457	183.69989	174.35220	-882.60010	295.98544	144.47417	-758.03650	240.09070	575.24329	-640.63416	273.71628	160.11061	-601.87750	274.08206	159.79892	-528.30585	304.11691	146.33821	-604.31274	-98.35283	1523.36938	-864.54279	80.45367	1076.98413	-649.49890	203.73119	798.17383	-726.92499	69.34885	577.21796	-794.65851	32.05352	173.88934	-773.35083	-54.17142	484.88217	-876.14905	-78.79788	141.54057	-725.16443	68.77786	217.35812				-737.88043	-42.43081	615.15546	-738.29535	-39.53559	568.16614	-721.21417	144.39664	218.88927				-599.61072	-62.31501	158.38309	-641.63336	-60.24743	162.89215	-737.66602	-70.93174	756.63287	-517.95569	-72.80466	142.91631							-665.78534	-21.41213	1045.57300	-666.58838	222.09167	1061.02405				-706.39624	192.16289	536.91425	-733.62762	-84.71575	873.99695	
214	4.260	-586.46014	80.84055	1831.75696	-740.91370	262.65735	744.31317	-633.60004	259.00922	1529.93127	-571.25769	82.40984	1320.53357	-746.42206	271.87039	877.02527	-756.84210	-24.10922	205.79285	-689.14966	13.30252	524.13959	-764.87805	245.61966	640.62189				-647.66931	-14.97283	811.02692	-787.99048	255.93326	498.66388	-548.12628	211.90352	165.20981	-546.87219	-11.49169	161.99188	-732.47101	132.69675	574.30499	-601.81445	37.04967	167.83208	-677.48669	56.91367	159.30414	-796.47620	181.76689	183.15280	-763.26294	224.91412	204.09299	-590.03223	183.80782	174.44978	-882.60834	296.06894	144.52896	-756.83301	239.63022	574.59607	-640.74072	273.93347	160.14893	-601.95776	274.15994	159.65213	-528.24139	304.00241	146.24747	-608.94818	-98.86166	1524.86426	-863.57184	80.11119	1076.28027	-647.43884	203.70964	798.50128	-726.72284	69.03893	577.03101	-794.69659	31.94961	174.06825	-772.52686	-54.18468	484.49509	-876.12219	-78.89765	141.41621	-724.98651	68.82307	217.60927				-736.91986	-42.53251	615.10205	-737.45770	-39.99312	568.28467	-720.89343	144.26375	218.54010				-599.59283	-62.41604	158.54895	-641.81689	-60.58530	162.60323	-736.18768	-71.02602	756.59509	-518.00629	-72.78222	143.02313							-664.25146	-21.31729	1046.31885	-665.43958	222.11420	1061.37317				-705.47479	192.14151	536.99292	-731.78046	-85.35960	874.53894	
215	4.280	-593.49170	79.67651	1833.71375	-739.64301	263.04263	744.64594	-638.33716	258.59018	1531.43054	-573.24524	82.26912	1322.67798	-744.96515	271.72260	877.12799	-756.93652	-24.05470	205.80684	-688.33099	13.38609	524.01135	-763.84314	245.53098	640.92773				-646.16846	-15.28793	810.91467	-787.25970	255.67128	498.62228	-548.07996	211.83517	165.31427	-546.81335	-11.50981	161.88062	-730.89740	132.78572	574.45129	-601.73993	37.04480	167.74185	-677.69739	56.83186	159.44615	-796.45264	181.71913	183.21768	-763.13452	224.85410	204.42427	-589.96039	183.75734	174.39041	-882.65271	296.18555	144.64310	-755.97522	239.38750	574.76489	-640.71057	273.77176	160.12508	-601.95776	274.15994	159.65213	-528.38281	304.18555	146.46870	-613.11401	-98.97450	1526.63647	-862.27142	79.88583	1075.68982	-646.16602	204.01419	798.42285	-725.89655	68.59295	577.26062	-794.89136	31.85012	174.12309	-772.34009	-54.47927	484.48093	-876.12219	-78.89765	141.41621	-725.06372	68.98090	217.59798				-736.33551	-42.45536	614.88391	-737.01721	-39.66230	567.99719	-720.66321	144.03073	218.70992				-599.19019	-62.37433	158.61719	-641.73236	-60.60171	162.70032	-735.03552	-71.28085	757.07690	-517.98566	-73.08208	143.18445							-662.94574	-21.61407	1046.92993	-664.58240	222.14972	1062.08801				-704.73547	191.98891	536.85333	-730.29932	-85.40137	874.63177	
